<?xml version="1.0" encoding="utf-8"?>
<!-- Generator: Adobe Illustrator 15.1.0, SVG Export Plug-In  -->
<!DOCTYPE svg PUBLIC "-//W3C//DTD SVG 1.1//EN" "http://www.w3.org/Graphics/SVG/1.1/DTD/svg11.dtd" [
	<!ENTITY ns_flows "http://ns.adobe.com/Flows/1.0/">
]>
<svg version="1.1"
	 xmlns="http://www.w3.org/2000/svg" xmlns:xlink="http://www.w3.org/1999/xlink" xmlns:a="http://ns.adobe.com/AdobeSVGViewerExtensions/3.0/"
	 x="0px" y="0px" width="18px" height="17px" viewBox="0 0 18 17" enable-background="new 0 0 18 17" xml:space="preserve">
<defs>
</defs>
<path opacity="0.67" fill="#FFFFFF" d="M8.831,8.556C8.937,3.813,12.846,0,17.657,0c0.02,0,0.039,0.001,0.059,0.001
	C17.61,4.744,13.701,8.558,8.89,8.558C8.87,8.558,8.851,8.556,8.831,8.556z"/>
<path opacity="0.67" fill="#FFFFFF" d="M0,0.001c0.105,4.743,4.015,8.557,8.826,8.557c0.02,0,0.038-0.002,0.058-0.002
	C8.778,3.813,4.869,0,0.058,0C0.039,0,0.02,0.001,0,0.001z"/>
<path opacity="0.67" fill="#FFFFFF" d="M8.884,8.56c-0.105,4.742-4.014,8.556-8.826,8.556c-0.019,0-0.038-0.001-0.058-0.001
	c0.105-4.743,4.016-8.557,8.826-8.557C8.846,8.558,8.865,8.56,8.884,8.56z"/>
<path opacity="0.67" fill="#FFFFFF" d="M8.831,8.56c0.105,4.742,4.015,8.556,8.826,8.556c0.02,0,0.039-0.001,0.059-0.001
	c-0.105-4.743-4.015-8.557-8.826-8.557C8.87,8.558,8.851,8.56,8.831,8.56z"/>
</svg>
