<?xml version="1.0" encoding="utf-8"?>
<!-- Generator: Adobe Illustrator 15.0.0, SVG Export Plug-In . SVG Version: 6.00 Build 0)  -->
<!DOCTYPE svg PUBLIC "-//W3C//DTD SVG 1.1//EN" "http://www.w3.org/Graphics/SVG/1.1/DTD/svg11.dtd">
<svg version="1.1" id="Layer_1" xmlns="http://www.w3.org/2000/svg" xmlns:xlink="http://www.w3.org/1999/xlink" x="0px" y="0px"
	 width="41.62px" height="34.25px" viewBox="-1.823 1.844 41.62 34.25" enable-background="new -1.823 1.844 41.62 34.25"
	 xml:space="preserve">
<path fill="#BE0027" d="M4,11.5c2.481,0,4.5-2.019,4.5-4.5S6.481,2.5,4,2.5S-0.5,4.519-0.5,7S1.519,11.5,4,11.5"/>
<path fill="#FFFFFF" d="M4,12c-2.757,0-5-2.243-5-5s2.243-5,5-5s5,2.243,5,5S6.757,12,4,12z M4,3C1.794,3,0,4.794,0,7s1.794,4,4,4
	s4-1.794,4-4S6.206,3,4,3z"/>
<path fill="#D6D4D4" d="M19,11.5c2.48,0,4.5-2.019,4.5-4.5S21.48,2.5,19,2.5c-2.481,0-4.5,2.019-4.5,4.5S16.519,11.5,19,11.5"/>
<path fill="#FFFFFF" d="M19,12c-2.757,0-5-2.243-5-5s2.243-5,5-5s5,2.243,5,5S21.757,12,19,12z M19,3c-2.206,0-4,1.794-4,4
	s1.794,4,4,4s4-1.794,4-4S21.206,3,19,3z"/>
<path fill="#D6D4D4" d="M34,11.5c2.48,0,4.5-2.019,4.5-4.5S36.48,2.5,34,2.5S29.5,4.519,29.5,7S31.52,11.5,34,11.5"/>
<path fill="#FFFFFF" d="M34,12c-2.757,0-5-2.243-5-5s2.243-5,5-5s5,2.243,5,5S36.757,12,34,12z M34,3c-2.206,0-4,1.794-4,4
	s1.794,4,4,4s4-1.794,4-4S36.206,3,34,3z"/>
<path fill="#D6D4D4" d="M4,23.5c2.481,0,4.5-2.02,4.5-4.5c0-2.481-2.019-4.5-4.5-4.5s-4.5,2.019-4.5,4.5
	C-0.5,21.48,1.519,23.5,4,23.5"/>
<path fill="#FFFFFF" d="M4,24c-2.757,0-5-2.243-5-5s2.243-5,5-5s5,2.243,5,5S6.757,24,4,24z M4,15c-2.206,0-4,1.794-4,4s1.794,4,4,4
	s4-1.794,4-4S6.206,15,4,15z"/>
<path fill="#BE0027" d="M19,23.5c2.48,0,4.5-2.02,4.5-4.5c0-2.481-2.02-4.5-4.5-4.5c-2.481,0-4.5,2.019-4.5,4.5
	C14.5,21.48,16.519,23.5,19,23.5"/>
<path fill="#FFFFFF" d="M19,24c-2.757,0-5-2.243-5-5s2.243-5,5-5s5,2.243,5,5S21.757,24,19,24z M19,15c-2.206,0-4,1.794-4,4
	s1.794,4,4,4s4-1.794,4-4S21.206,15,19,15z"/>
<path fill="#D6D4D4" d="M34,23.5c2.48,0,4.5-2.02,4.5-4.5c0-2.481-2.02-4.5-4.5-4.5s-4.5,2.019-4.5,4.5
	C29.5,21.48,31.52,23.5,34,23.5"/>
<path fill="#FFFFFF" d="M34,24c-2.757,0-5-2.243-5-5s2.243-5,5-5s5,2.243,5,5S36.757,24,34,24z M34,15c-2.206,0-4,1.794-4,4
	s1.794,4,4,4s4-1.794,4-4S36.206,15,34,15z"/>
<path fill="#D6D4D4" d="M4,35.5c2.481,0,4.5-2.02,4.5-4.5S6.481,26.5,4,26.5s-4.5,2.02-4.5,4.5S1.519,35.5,4,35.5"/>
<path fill="#FFFFFF" d="M4,36c-2.757,0-5-2.243-5-5s2.243-5,5-5s5,2.243,5,5S6.757,36,4,36z M4,27c-2.206,0-4,1.794-4,4s1.794,4,4,4
	s4-1.794,4-4S6.206,27,4,27z"/>
<path fill="#D6D4D4" d="M19,35.5c2.48,0,4.5-2.02,4.5-4.5s-2.02-4.5-4.5-4.5c-2.481,0-4.5,2.02-4.5,4.5S16.519,35.5,19,35.5"/>
<path fill="#FFFFFF" d="M19,36c-2.757,0-5-2.243-5-5s2.243-5,5-5s5,2.243,5,5S21.757,36,19,36z M19,27c-2.206,0-4,1.794-4,4
	s1.794,4,4,4c2.206,0,4-1.794,4-4S21.206,27,19,27z"/>
<path fill="#BE0027" d="M34,35.5c2.48,0,4.5-2.02,4.5-4.5s-2.02-4.5-4.5-4.5s-4.5,2.02-4.5,4.5S31.52,35.5,34,35.5"/>
<path fill="#FFFFFF" d="M34,36c-2.757,0-5-2.243-5-5s2.243-5,5-5s5,2.243,5,5S36.757,36,34,36z M34,27c-2.206,0-4,1.794-4,4
	s1.794,4,4,4s4-1.794,4-4S36.206,27,34,27z"/>
</svg>
