<?xml version="1.0" encoding="utf-8"?>
<!-- Generator: Adobe Illustrator 15.0.0, SVG Export Plug-In  -->
<!DOCTYPE svg PUBLIC "-//W3C//DTD SVG 1.1//EN" "http://www.w3.org/Graphics/SVG/1.1/DTD/svg11.dtd" [
	<!ENTITY ns_flows "http://ns.adobe.com/Flows/1.0/">
]>
<svg version="1.1"
	 xmlns="http://www.w3.org/2000/svg" xmlns:xlink="http://www.w3.org/1999/xlink" xmlns:a="http://ns.adobe.com/AdobeSVGViewerExtensions/3.0/"
	 x="0px" y="0px" width="40px" height="12px" viewBox="-0.363 -0.293 40 12" enable-background="new -0.363 -0.293 40 12"
	 xml:space="preserve">
<defs>
</defs>
<circle fill="#C91617" cx="5.5" cy="5.5" r="5"/>
<path fill="#FFFFFF" d="M5.5,11C2.467,11,0,8.533,0,5.5C0,2.467,2.467,0,5.5,0S11,2.467,11,5.5C11,8.533,8.533,11,5.5,11z M5.5,1
	C3.019,1,1,3.019,1,5.5S3.019,10,5.5,10S10,7.981,10,5.5S7.981,1,5.5,1z"/>
<circle fill="#D6D4D4" cx="19.901" cy="5.5" r="5"/>
<path fill="#FFFFFF" d="M19.901,11c-3.033,0-5.5-2.467-5.5-5.5c0-3.033,2.467-5.5,5.5-5.5c3.032,0,5.5,2.467,5.5,5.5
	C25.401,8.533,22.934,11,19.901,11z M19.901,1c-2.481,0-4.5,2.019-4.5,4.5s2.019,4.5,4.5,4.5s4.5-2.019,4.5-4.5S22.383,1,19.901,1z"
	/>
<circle fill="#D6D4D4" cx="33.5" cy="5.5" r="5"/>
<path fill="#FFFFFF" d="M33.5,11C30.467,11,28,8.533,28,5.5C28,2.467,30.467,0,33.5,0S39,2.467,39,5.5C39,8.533,36.533,11,33.5,11z
	 M33.5,1C31.019,1,29,3.019,29,5.5s2.019,4.5,4.5,4.5S38,7.981,38,5.5S35.981,1,33.5,1z"/>
</svg>
